<svg xmlns="http://www.w3.org/2000/svg" style="position:absolute;width:0;height:0;overflow:hidden">
  <symbol id="icon-arrow-down" viewBox="0 0 24 24">
    <path d="M12 5v14M19 12l-7 7-7-7" fill="none" stroke="currentColor" stroke-width="2" stroke-linecap="round" stroke-linejoin="round"/>
  </symbol>
  <symbol id="icon-arrow-up" viewBox="0 0 24 24">
    <path d="M12 19V5M5 12l7-7 7 7" fill="none" stroke="currentColor" stroke-width="2" stroke-linecap="round" stroke-linejoin="round"/>
  </symbol>
  <symbol id="icon-piggy-bank" viewBox="0 0 24 24">
    <path d="M19 5c-1.5 0-2.8 0.6-3.5 1.5-1.1-0.6-2.4-1-3.8-1-3.5 0-6.4 2.6-6.9 6-0.1 0.7-0.1 1.4 0 2.1 0.5 3.4 3.4 6 6.9 6 1.4 0 2.7-0.4 3.8-1 0.7 0.9 2 1.5 3.5 1.5 2.5 0 4.5-2 4.5-4.5V9.5C23.5 7 21.5 5 19 5zM15 13.5a1.5 1.5 0 1 1 0-3 1.5 1.5 0 0 1 0 3zM19 7a1 1 0 1 1 0 2 1 1 0 0 1 0-2z" fill="currentColor"/>
  </symbol>
  <symbol id="icon-shopping-bag" viewBox="0 0 24 24">
    <path d="M6 2 3 6v14a2 2 0 0 0 2 2h14a2 2 0 0 0 2-2V6l-3-4Z" fill="none" stroke="currentColor" stroke-width="2" stroke-linecap="round" stroke-linejoin="round"/>
    <path d="M3 6h18" fill="none" stroke="currentColor" stroke-width="2" stroke-linecap="round" stroke-linejoin="round"/>
    <path d="M16 10a4 4 0 0 1-8 0" fill="none" stroke="currentColor" stroke-width="2" stroke-linecap="round" stroke-linejoin="round"/>
  </symbol>
  <symbol id="icon-target" viewBox="0 0 24 24">
    <path d="M12 2a10 10 0 1 0 10 10A10 10 0 0 0 12 2zm0 18a8 8 0 1 1 8-8 8 8 0 0 1-8 8zm0-14a6 6 0 1 0 6 6 6 6 0 0 0-6-6zm0 10a4 4 0 1 1 4-4 4 4 0 0 1-4 4z" fill="currentColor"/>
  </symbol>
  <symbol id="icon-activity" viewBox="0 0 24 24">
    <path d="M22 12h-4l-3 9L9 3l-3 9H2" fill="none" stroke="currentColor" stroke-width="2" stroke-linecap="round" stroke-linejoin="round"/>
  </symbol>
  <symbol id="icon-loader-2" viewBox="0 0 24 24">
    <path d="M21 12a9 9 0 1 1-6.219-8.56" fill="none" stroke="currentColor" stroke-width="2" stroke-linecap="round" stroke-linejoin="round"/>
  </symbol>
  <symbol id="icon-layout-dashboard" viewBox="0 0 24 24">
    <path d="M4 4h7v7H4V4Zm9 0h7v4h-7V4ZM13 10h7v10h-7V10ZM4 13h7v7H4v-7Z" fill="currentColor"/>
  </symbol>
  <symbol id="icon-layout-grid" viewBox="0 0 24 24">
    <path d="M4 4h7v7H4V4Zm9 0h7v7h-7V4ZM4 13h7v7H4v-7Zm9 0h7v7h-7v-7Z" fill="currentColor"/>
  </symbol>
  <symbol id="icon-wallet-cards" viewBox="0 0 24 24">
    <path d="M4 6.5C4 5.12 5.12 4 6.5 4H19a1 1 0 0 1 1 1v3H7.5A3.5 3.5 0 0 0 4 11.5v-5Z" fill="currentColor" opacity="0.35"/>
    <path d="M4 11.5C4 9.57 5.57 8 7.5 8H20a1 1 0 0 1 1 1v8.5A2.5 2.5 0 0 1 18.5 20h-12A2.5 2.5 0 0 1 4 17.5v-6Z" fill="currentColor"/>
    <path d="M16 14.25a1.25 1.25 0 1 0 0 2.5h3v-2.5h-3Z" fill="hsl(var(--background))"/>
  </symbol>
  <symbol id="icon-wallet" viewBox="0 0 24 24">
    <path d="M4 7.5A3.5 3.5 0 0 1 7.5 4H20a1 1 0 0 1 1 1v3H7.5A2.5 2.5 0 0 0 5 10.5V8.25C5 7.56 4.44 7 3.75 7H4.1c-.06.16-.1.33-.1.5Z" fill="currentColor" opacity="0.35"/>
    <path d="M3 8.5A2.5 2.5 0 0 1 5.5 6H20a1 1 0 0 1 1 1v10.5A2.5 2.5 0 0 1 18.5 20h-13A2.5 2.5 0 0 1 3 17.5v-9Z" fill="currentColor"/>
    <path d="M16 13.25a1.25 1.25 0 1 0 0 2.5h3v-2.5h-3Z" fill="hsl(var(--background))"/>
  </symbol>
  <symbol id="icon-receipt" viewBox="0 0 24 24">
    <path d="M7 3h10a2 2 0 0 1 2 2v16l-2-1-2 1-2-1-2 1-2-1-2 1-2-1-2 1V5a2 2 0 0 1 2-2Z" fill="currentColor"/>
    <path d="M8 7h8v2H8V7Zm0 4h8v2H8v-2Zm0 4h6v2H8v-2Z" fill="hsl(var(--background))" opacity="0.9"/>
  </symbol>
  <symbol id="icon-arrow-right-left" viewBox="0 0 24 24">
    <path d="M7 7h12l-3-3 1.4-1.4L23.8 9l-6.4 6.4L16 14l3-3H7V7Z" fill="currentColor"/>
    <path d="M17 17H5l3 3-1.4 1.4L0.2 15l6.4-6.4L8 10l-3 3h12v4Z" fill="currentColor" opacity="0.8"/>
  </symbol>
  <symbol id="icon-repeat" viewBox="0 0 24 24">
    <path d="M7 7h10a4 4 0 0 1 4 4v2h-2v-2a2 2 0 0 0-2-2H7V7Z" fill="currentColor"/>
    <path d="M17 17H7a4 4 0 0 1-4-4v-2h2v2a2 2 0 0 0 2 2h10v2Z" fill="currentColor" opacity="0.85"/>
    <path d="M8.5 5 6 7.5 8.5 10l1.4-1.4L8.8 7.5l1.1-1.1L8.5 5Z" fill="currentColor"/>
    <path d="M15.5 19 18 16.5 15.5 14l-1.4 1.4 1.1 1.1-1.1 1.1 1.4 1.4Z" fill="currentColor"/>
  </symbol>
  <symbol id="icon-trending-up" viewBox="0 0 24 24">
    <path d="M4 16l6-6 4 4 6-6v4h2V4h-8v2h4l-4 4-4-4-8 8 2 2Z" fill="currentColor"/>
  </symbol>
  <symbol id="icon-trending-down" viewBox="0 0 24 24">
    <path d="M4 8l6 6 4-4 6 6v-4h2v8h-8v-2h4l-4-4-4 4-8-8 2-2Z" fill="currentColor"/>
  </symbol>
  <symbol id="icon-line-chart" viewBox="0 0 24 24">
    <path d="M4 19h16v2H2V3h2v16Z" fill="currentColor" opacity="0.6"/>
    <path d="M6 15l4-4 3 3 5-6 1.6 1.2-6.6 8-3-3-2.6 2.6L6 15Z" fill="currentColor"/>
  </symbol>
  <symbol id="icon-plus" viewBox="0 0 24 24">
    <path d="M11 5h2v6h6v2h-6v6h-2v-6H5v-2h6V5Z" fill="currentColor"/>
  </symbol>
  <symbol id="icon-pencil" viewBox="0 0 24 24">
    <path d="M4 17.25V20h2.75L17.8 8.95l-2.75-2.75L4 17.25Z" fill="currentColor"/>
    <path d="M19.7 7.05a1 1 0 0 0 0-1.4l-1.35-1.35a1 1 0 0 0-1.4 0l-1.1 1.1 2.75 2.75 1.1-1.1Z" fill="currentColor" opacity="0.7"/>
  </symbol>
  <symbol id="icon-archive" viewBox="0 0 24 24">
    <path d="M4 4h16v4H4V4Z" fill="currentColor" opacity="0.7"/>
    <path d="M5 9h14v11H5V9Z" fill="currentColor"/>
    <path d="M9 12h6v2H9v-2Z" fill="hsl(var(--background))" opacity="0.9"/>
  </symbol>
  <symbol id="icon-trash" viewBox="0 0 24 24">
    <path d="M4 7h16" fill="none" stroke="currentColor" stroke-width="2" stroke-linecap="round"/>
    <path d="M9 7V5h6v2" fill="none" stroke="currentColor" stroke-width="2" stroke-linecap="round"/>
    <path d="M6 7l1 12a2 2 0 0 0 2 2h6a2 2 0 0 0 2-2l1-12" fill="none" stroke="currentColor" stroke-width="2" stroke-linecap="round"/>
    <path d="M10 11v6M14 11v6" fill="none" stroke="currentColor" stroke-width="2" stroke-linecap="round"/>
  </symbol>
  <symbol id="icon-rotate-ccw" viewBox="0 0 24 24">
    <path d="M12 6a6 6 0 1 1-5.3 3.2l1.8 1a4 4 0 1 0 .8-3.4H7V3L3 7l4 4V8.8A8 8 0 1 0 12 4v2Z" fill="currentColor"/>
  </symbol>
  <symbol id="icon-arrow-up-right" viewBox="0 0 24 24">
    <path d="M7 17 17 7H10V5h10v10h-2V8.4L8.4 18.4 7 17Z" fill="currentColor"/>
  </symbol>
  <symbol id="icon-arrow-down-right" viewBox="0 0 24 24">
    <path d="M7 7 17 17v-7h2v10H9v-2h7.6L6.6 8.4 7 7Z" fill="currentColor"/>
  </symbol>
  <symbol id="icon-arrow-down-left" viewBox="0 0 24 24">
    <path d="M17 7 7 17h7v2H4V9h2v7.6L15.6 7.6 17 7Z" fill="currentColor"/>
  </symbol>
  <symbol id="icon-arrow-right" viewBox="0 0 24 24">
    <path d="M13 5l7 7-7 7-1.4-1.4L16.2 13H4v-2h12.2l-4.6-4.6L13 5Z" fill="currentColor"/>
  </symbol>
  <symbol id="icon-settings-2" viewBox="0 0 24 24">
    <path d="M19.4 13a7.9 7.9 0 0 0 0-2l2-1.2-2-3.4-2.3.8a7.3 7.3 0 0 0-1.7-1l-.3-2.4h-4l-.3 2.4c-.6.2-1.2.6-1.7 1l-2.3-.8-2 3.4 2 1.2a7.9 7.9 0 0 0 0 2l-2 1.2 2 3.4 2.3-.8c.5.4 1.1.8 1.7 1l.3 2.4h4l.3-2.4c.6-.2 1.2-.6 1.7-1l2.3.8 2-3.4-2-1.2Z" fill="currentColor" opacity="0.85"/>
    <path d="M12 15.5A3.5 3.5 0 1 1 12 8.5a3.5 3.5 0 0 1 0 7Z" fill="hsl(var(--background))"/>
  </symbol>
  <symbol id="icon-log-out" viewBox="0 0 24 24">
    <path d="M10 7V5a2 2 0 0 1 2-2h8v18h-8a2 2 0 0 1-2-2v-2h2v2h6V5h-6v2h-2Z" fill="currentColor" opacity="0.85"/>
    <path d="M4 12l4-4 1.4 1.4L7.8 11H15v2H7.8l1.6 1.6L8 16l-4-4Z" fill="currentColor"/>
  </symbol>
  <symbol id="icon-x" viewBox="0 0 24 24">
    <path d="M6.3 5 5 6.3 10.7 12 5 17.7 6.3 19 12 13.3 17.7 19 19 17.7 13.3 12 19 6.3 17.7 5 12 10.7 6.3 5Z" fill="currentColor"/>
  </symbol>
  <symbol id="icon-lock" viewBox="0 0 24 24">
    <path d="M7 10V8a5 5 0 0 1 10 0v2h1a2 2 0 0 1 2 2v8a2 2 0 0 1-2 2H6a2 2 0 0 1-2-2v-8a2 2 0 0 1 2-2h1Zm2 0h6V8a3 3 0 0 0-6 0v2Z" fill="currentColor"/>
    <path d="M12 14a2 2 0 0 0-1 3.7V19h2v-1.3A2 2 0 0 0 12 14Z" fill="hsl(var(--background))"/>
  </symbol>
  <symbol id="icon-banknote" viewBox="0 0 24 24">
    <path d="M3 7h18v10H3V7Z" fill="currentColor"/>
    <path d="M6 9a3 3 0 0 1-2 2v2a3 3 0 0 1 2 2h12a3 3 0 0 1 2-2v-2a3 3 0 0 1-2-2H6Z" fill="hsl(var(--background))" opacity="0.9"/>
    <path d="M12 10a2 2 0 1 1 0 4 2 2 0 0 1 0-4Z" fill="currentColor"/>
  </symbol>
  <symbol id="icon-credit-card" viewBox="0 0 24 24">
    <path d="M3 6h18a2 2 0 0 1 2 2v2H1V8a2 2 0 0 1 2-2Z" fill="currentColor" opacity="0.75"/>
    <path d="M1 11h22v5a2 2 0 0 1-2 2H3a2 2 0 0 1-2-2v-5Z" fill="currentColor"/>
    <path d="M4 15h6v2H4v-2Z" fill="hsl(var(--background))" opacity="0.9"/>
  </symbol>
  <symbol id="icon-candlestick-chart" viewBox="0 0 24 24">
    <path d="M6 5h2v3h2v2H8v7h2v2H8v2H6v-2H4v-2h2V10H4V8h2V5Zm10 2h2v4h2v2h-2v5h2v2h-2v2h-2v-2h-2v-2h2v-5h-2v-2h2V7Z" fill="currentColor"/>
  </symbol>
  <symbol id="icon-activity" viewBox="0 0 24 24">
    <path d="M13 2 3 14h7l-1 8 10-12h-7l1-8Z" fill="currentColor"/>
  </symbol>
  <symbol id="icon-layers" viewBox="0 0 24 24">
    <path d="m12.83 2.18a2 2 0 0 0-1.66 0L2.6 6.08a1 1 0 0 0 0 1.83l8.58 3.91a2 2 0 0 0 1.66 0l8.58-3.9a1 1 0 0 0 0-1.83Z" fill="none" stroke="currentColor" stroke-width="2" stroke-linecap="round" stroke-linejoin="round"/>
    <path d="m22 17.65-9.17 4.16a2 2 0 0 1-1.66 0L2 17.65" fill="none" stroke="currentColor" stroke-width="2" stroke-linecap="round" stroke-linejoin="round"/>
    <path d="m22 12.65-9.17 4.16a2 2 0 0 1-1.66 0L2 12.65" fill="none" stroke="currentColor" stroke-width="2" stroke-linecap="round" stroke-linejoin="round"/>
  </symbol>
  <symbol id="icon-alert-circle" viewBox="0 0 24 24">
    <circle cx="12" cy="12" r="10" fill="none" stroke="currentColor" stroke-width="2" stroke-linecap="round" stroke-linejoin="round"/>
    <line x1="12" x2="12" y1="8" y2="12" fill="none" stroke="currentColor" stroke-width="2" stroke-linecap="round" stroke-linejoin="round"/>
    <line x1="12" x2="12.01" y1="16" y2="16" fill="none" stroke="currentColor" stroke-width="2" stroke-linecap="round" stroke-linejoin="round"/>
  </symbol>
  <symbol id="icon-folder" viewBox="0 0 24 24">
    <path d="M4 20h16a2 2 0 0 0 2-2V8a2 2 0 0 0-2-2h-7.93a2 2 0 0 1-1.66-.9l-.82-1.2A2 2 0 0 0 7.93 2H4a2 2 0 0 0-2 2v13c0 1.1.9 2 2 2Z" fill="none" stroke="currentColor" stroke-width="2" stroke-linecap="round" stroke-linejoin="round"/>
  </symbol>
  <symbol id="icon-folder-open" viewBox="0 0 24 24">
    <path d="m6 14 1.45-2.9A2 2 0 0 1 9.24 10H20a2 2 0 0 1 1.94 2.5l-1.55 6a2 2 0 0 1-1.94 1.5H4a2 2 0 0 1-2-2V5c0-1.1.9-2 2-2h3.93a2 2 0 0 1 1.66.9l.82 1.2a2 2 0 0 0 1.66.9H18a2 2 0 0 1 2 2v2" fill="none" stroke="currentColor" stroke-width="2" stroke-linecap="round" stroke-linejoin="round"/>
  </symbol>
  <symbol id="icon-chevron-down" viewBox="0 0 24 24">
    <path d="m6 9 6 6 6-6" fill="none" stroke="currentColor" stroke-width="2" stroke-linecap="round" stroke-linejoin="round"/>
  </symbol>
  <symbol id="icon-check" viewBox="0 0 24 24">
    <path d="M20 6 9 17l-5-5" fill="none" stroke="currentColor" stroke-width="2" stroke-linecap="round" stroke-linejoin="round"/>
  </symbol>
  <symbol id="icon-check-circle" viewBox="0 0 24 24">
    <path d="M22 11.08V12a10 10 0 1 1-5.93-9.14" fill="none" stroke="currentColor" stroke-width="2" stroke-linecap="round" stroke-linejoin="round"/>
    <polyline points="22 4 12 14.01 9 11.01" fill="none" stroke="currentColor" stroke-width="2" stroke-linecap="round" stroke-linejoin="round"/>
  </symbol>
  <symbol id="icon-refresh-cw" viewBox="0 0 24 24">
    <path d="M3 12a9 9 0 0 1 9-9 9.75 9.75 0 0 1 6.74 2.74L21 8" fill="none" stroke="currentColor" stroke-width="2" stroke-linecap="round" stroke-linejoin="round"/>
    <path d="M21 3v5h-5" fill="none" stroke="currentColor" stroke-width="2" stroke-linecap="round" stroke-linejoin="round"/>
    <path d="M21 12a9 9 0 0 1-9 9 9.75 9.75 0 0 1-6.74-2.74L3 16" fill="none" stroke="currentColor" stroke-width="2" stroke-linecap="round" stroke-linejoin="round"/>
    <path d="M8 21h-5v-5" fill="none" stroke="currentColor" stroke-width="2" stroke-linecap="round" stroke-linejoin="round"/>
  </symbol>
  <symbol id="icon-history" viewBox="0 0 24 24">
    <path d="M3 12a9 9 0 1 0 9-9 9.75 9.75 0 0 0-6.74 2.74L3 8" fill="none" stroke="currentColor" stroke-width="2" stroke-linecap="round" stroke-linejoin="round"/>
    <path d="M3 3v5h5" fill="none" stroke="currentColor" stroke-width="2" stroke-linecap="round" stroke-linejoin="round"/>
    <path d="M12 7v5l4 2" fill="none" stroke="currentColor" stroke-width="2" stroke-linecap="round" stroke-linejoin="round"/>
  </symbol>
  <symbol id="icon-pen-line" viewBox="0 0 24 24">
    <path d="M12 20h9" fill="none" stroke="currentColor" stroke-width="2" stroke-linecap="round" stroke-linejoin="round"/>
    <path d="M16.5 3.5a2.12 2.12 0 0 1 3 3L7 19l-4 1 1-4Z" fill="none" stroke="currentColor" stroke-width="2" stroke-linecap="round" stroke-linejoin="round"/>
  </symbol>
  <symbol id="icon-mail" viewBox="0 0 24 24">
    <rect width="20" height="16" x="2" y="4" rx="2" fill="none" stroke="currentColor" stroke-width="2" stroke-linecap="round" stroke-linejoin="round"/>
    <path d="m22 7-8.97 5.7a1.94 1.94 0 0 1-2.06 0L2 7" fill="none" stroke="currentColor" stroke-width="2" stroke-linecap="round" stroke-linejoin="round"/>
  </symbol>
  <symbol id="icon-utensils" viewBox="0 0 24 24">
    <path d="M3 2v7c0 1.1.9 2 2 2h4a2 2 0 0 0 2-2V2" fill="none" stroke="currentColor" stroke-width="2" stroke-linecap="round" stroke-linejoin="round"/>
    <path d="M7 2v20" fill="none" stroke="currentColor" stroke-width="2" stroke-linecap="round" stroke-linejoin="round"/>
    <path d="M21 15V2v0a5 5 0 0 0-5 5v6c0 1.1.9 2 2 2h3Zm0 0v7" fill="none" stroke="currentColor" stroke-width="2" stroke-linecap="round" stroke-linejoin="round"/>
  </symbol>
  <symbol id="icon-car" viewBox="0 0 24 24">
    <path d="M19 17h2c.6 0 1-.4 1-1v-3c0-.9-.7-1.7-1.5-1.9C18.7 10.6 16 10 16 10s-1.3-1.4-2.2-2.3c-.5-.4-1.1-.7-1.8-.7H5c-.6 0-1.1.4-1.4.9l-1.4 2.9A3.7 3.7 0 0 0 2 12v4c0 .6.4 1 1 1h2" fill="none" stroke="currentColor" stroke-width="2" stroke-linecap="round" stroke-linejoin="round"/>
    <circle cx="7" cy="17" r="2" fill="none" stroke="currentColor" stroke-width="2" stroke-linecap="round" stroke-linejoin="round"/>
    <path d="M9 17h6" fill="none" stroke="currentColor" stroke-width="2" stroke-linecap="round" stroke-linejoin="round"/>
    <circle cx="17" cy="17" r="2" fill="none" stroke="currentColor" stroke-width="2" stroke-linecap="round" stroke-linejoin="round"/>
  </symbol>
  <symbol id="icon-home" viewBox="0 0 24 24">
    <path d="m3 9 9-7 9 7v11a2 2 0 0 1-2 2H5a2 2 0 0 1-2-2z" fill="none" stroke="currentColor" stroke-width="2" stroke-linecap="round" stroke-linejoin="round"/>
    <polyline points="9 22 9 12 15 12 15 22" fill="none" stroke="currentColor" stroke-width="2" stroke-linecap="round" stroke-linejoin="round"/>
  </symbol>
  <symbol id="icon-gamepad-2" viewBox="0 0 24 24">
    <line x1="6" x2="10" y1="12" y2="12" fill="none" stroke="currentColor" stroke-width="2" stroke-linecap="round" stroke-linejoin="round"/>
    <line x1="8" x2="8" y1="10" y2="14" fill="none" stroke="currentColor" stroke-width="2" stroke-linecap="round" stroke-linejoin="round"/>
    <line x1="15" x2="15.01" y1="13" y2="13" fill="none" stroke="currentColor" stroke-width="2" stroke-linecap="round" stroke-linejoin="round"/>
    <line x1="18" x2="18.01" y1="11" y2="11" fill="none" stroke="currentColor" stroke-width="2" stroke-linecap="round" stroke-linejoin="round"/>
    <rect width="20" height="12" x="2" y="6" rx="2" fill="none" stroke="currentColor" stroke-width="2" stroke-linecap="round" stroke-linejoin="round"/>
  </symbol>
  <symbol id="icon-stethoscope" viewBox="0 0 24 24">
    <path d="M4.8 2.3A.3.3 0 1 0 5 2H4a2 2 0 0 0-2 2v5a6 6 0 0 0 6 6v0a6 6 0 0 0 6-6V4a2 2 0 0 0-2-2h-1a.2.2 0 1 0 .3.3" fill="none" stroke="currentColor" stroke-width="2" stroke-linecap="round" stroke-linejoin="round"/>
    <path d="M8 15v1a6 6 0 0 0 6 6v0a6 6 0 0 0 6-6v-4" fill="none" stroke="currentColor" stroke-width="2" stroke-linecap="round" stroke-linejoin="round"/>
    <circle cx="20" cy="10" r="2" fill="none" stroke="currentColor" stroke-width="2" stroke-linecap="round" stroke-linejoin="round"/>
  </symbol>
  <symbol id="icon-book-open" viewBox="0 0 24 24">
    <path d="M2 3h6a4 4 0 0 1 4 4v14a3 3 0 0 0-3-3H2z" fill="none" stroke="currentColor" stroke-width="2" stroke-linecap="round" stroke-linejoin="round"/>
    <path d="M22 3h-6a4 4 0 0 0-4 4v14a3 3 0 0 1 3-3h7z" fill="none" stroke="currentColor" stroke-width="2" stroke-linecap="round" stroke-linejoin="round"/>
  </symbol>
  <symbol id="icon-plane" viewBox="0 0 24 24">
    <path d="M2 22h20" fill="none" stroke="currentColor" stroke-width="2" stroke-linecap="round" stroke-linejoin="round"/>
    <path d="M13 6h7a2 2 0 0 1 2 2v10" fill="none" stroke="currentColor" stroke-width="2" stroke-linecap="round" stroke-linejoin="round"/>
    <path d="M13 6 6 2 2 6l7 4v10" fill="none" stroke="currentColor" stroke-width="2" stroke-linecap="round" stroke-linejoin="round"/>
  </symbol>
  <symbol id="icon-wechat" viewBox="0 0 24 24">
    <path d="M17.5 15.5c-.8 0-1.5.2-2.1.6-1.1-1.3-2.8-2.1-4.6-2.1-3.6 0-6.6 2.5-6.6 5.5 0 1.8 1.1 3.4 2.7 4.4-.1.4-.4 1.4-.4 1.5 0 0 0 .1.1.1.1 0 .2-.1.4-.2 1.1-.6 2.3-1.3 2.5-1.4.4.1.9.2 1.3.2 3.6 0 6.6-2.5 6.6-5.5.1-1.7-1-3.1-2.5-4.1z" fill="currentColor"/>
    <path d="M14.4 14.5c.3 0 .6-.1.8-.1 2.9 0 5.3-2 5.3-4.5 0-2.5-2.4-4.5-5.3-4.5-2.9 0-5.3 2-5.3 4.5 0 .8.2 1.5.6 2.2.1.2.3.4.4.5-.4.1-.7.3-1.1.4-.4.1-.8.2-1.2.2-.4.7-.7 1.4-.7 2.2 0 1.4.9 2.7 2.2 3.5-.5.9-1.2 1.7-2 2.2-.1.1-.2.2-.2.3 0 .1 0 .1.1.1.1 0 .4-.1.6-.2 1.4-.6 2.6-1.5 3.1-1.9.6.2 1.3.3 1.9.3 2.9 0 5.3-2 5.3-4.5 0-2.4-2.4-4.5-5.3-4.5z" fill="currentColor" opacity="0.5"/>
  </symbol>
  <symbol id="icon-github" viewBox="0 0 24 24">
    <path d="M12 2A10 10 0 0 0 2 12c0 4.42 2.87 8.17 6.84 9.5.5.08.66-.23.66-.5v-1.69c-2.77.6-3.36-1.34-3.36-1.34-.46-1.16-1.11-1.47-1.11-1.47-.91-.62.07-.6.07-.6 1 .07 1.53 1.03 1.53 1.03.87 1.52 2.34 1.07 2.91.83.09-.65.35-1.09.63-1.34-2.22-.25-4.55-1.11-4.55-4.92 0-1.11.38-2 1.03-2.71-.1-.25-.45-1.29.1-2.64 0 0 .84-.27 2.75 1.02a9.68 9.68 0 0 1 5 0c1.91-1.29 2.75-1.02 2.75-1.02.55 1.35.2 2.39.1 2.64.65.71 1.03 1.6 1.03 2.71 0 3.82-2.34 4.66-4.57 4.91.36.31.69.92.69 1.85V21c0 .27.16.59.67.5C19.14 20.16 22 16.42 22 12A10 10 0 0 0 12 2z" fill="currentColor"/>
  </symbol>
</svg>
