<svg xmlns="http://www.w3.org/2000/svg" style="position:absolute;width:0;height:0;overflow:hidden">
  <symbol id="icon-layout-dashboard" viewBox="0 0 24 24">
    <path d="M4 4h7v7H4V4Zm9 0h7v4h-7V4ZM13 10h7v10h-7V10ZM4 13h7v7H4v-7Z" fill="currentColor"/>
  </symbol>
  <symbol id="icon-layout-grid" viewBox="0 0 24 24">
    <path d="M4 4h7v7H4V4Zm9 0h7v7h-7V4ZM4 13h7v7H4v-7Zm9 0h7v7h-7v-7Z" fill="currentColor"/>
  </symbol>
  <symbol id="icon-wallet-cards" viewBox="0 0 24 24">
    <path d="M4 6.5C4 5.12 5.12 4 6.5 4H19a1 1 0 0 1 1 1v3H7.5A3.5 3.5 0 0 0 4 11.5v-5Z" fill="currentColor" opacity="0.35"/>
    <path d="M4 11.5C4 9.57 5.57 8 7.5 8H20a1 1 0 0 1 1 1v8.5A2.5 2.5 0 0 1 18.5 20h-12A2.5 2.5 0 0 1 4 17.5v-6Z" fill="currentColor"/>
    <path d="M16 14.25a1.25 1.25 0 1 0 0 2.5h3v-2.5h-3Z" fill="hsl(var(--background))"/>
  </symbol>
  <symbol id="icon-wallet" viewBox="0 0 24 24">
    <path d="M4 7.5A3.5 3.5 0 0 1 7.5 4H20a1 1 0 0 1 1 1v3H7.5A2.5 2.5 0 0 0 5 10.5V8.25C5 7.56 4.44 7 3.75 7H4.1c-.06.16-.1.33-.1.5Z" fill="currentColor" opacity="0.35"/>
    <path d="M3 8.5A2.5 2.5 0 0 1 5.5 6H20a1 1 0 0 1 1 1v10.5A2.5 2.5 0 0 1 18.5 20h-13A2.5 2.5 0 0 1 3 17.5v-9Z" fill="currentColor"/>
    <path d="M16 13.25a1.25 1.25 0 1 0 0 2.5h3v-2.5h-3Z" fill="hsl(var(--background))"/>
  </symbol>
  <symbol id="icon-receipt" viewBox="0 0 24 24">
    <path d="M7 3h10a2 2 0 0 1 2 2v16l-2-1-2 1-2-1-2 1-2-1-2 1-2-1-2 1V5a2 2 0 0 1 2-2Z" fill="currentColor"/>
    <path d="M8 7h8v2H8V7Zm0 4h8v2H8v-2Zm0 4h6v2H8v-2Z" fill="hsl(var(--background))" opacity="0.9"/>
  </symbol>
  <symbol id="icon-arrow-right-left" viewBox="0 0 24 24">
    <path d="M7 7h12l-3-3 1.4-1.4L23.8 9l-6.4 6.4L16 14l3-3H7V7Z" fill="currentColor"/>
    <path d="M17 17H5l3 3-1.4 1.4L0.2 15l6.4-6.4L8 10l-3 3h12v4Z" fill="currentColor" opacity="0.8"/>
  </symbol>
  <symbol id="icon-repeat" viewBox="0 0 24 24">
    <path d="M7 7h10a4 4 0 0 1 4 4v2h-2v-2a2 2 0 0 0-2-2H7V7Z" fill="currentColor"/>
    <path d="M17 17H7a4 4 0 0 1-4-4v-2h2v2a2 2 0 0 0 2 2h10v2Z" fill="currentColor" opacity="0.85"/>
    <path d="M8.5 5 6 7.5 8.5 10l1.4-1.4L8.8 7.5l1.1-1.1L8.5 5Z" fill="currentColor"/>
    <path d="M15.5 19 18 16.5 15.5 14l-1.4 1.4 1.1 1.1-1.1 1.1 1.4 1.4Z" fill="currentColor"/>
  </symbol>
  <symbol id="icon-trending-up" viewBox="0 0 24 24">
    <path d="M4 16l6-6 4 4 6-6v4h2V4h-8v2h4l-4 4-4-4-8 8 2 2Z" fill="currentColor"/>
  </symbol>
  <symbol id="icon-trending-down" viewBox="0 0 24 24">
    <path d="M4 8l6 6 4-4 6 6v-4h2v8h-8v-2h4l-4-4-4 4-8-8 2-2Z" fill="currentColor"/>
  </symbol>
  <symbol id="icon-line-chart" viewBox="0 0 24 24">
    <path d="M4 19h16v2H2V3h2v16Z" fill="currentColor" opacity="0.6"/>
    <path d="M6 15l4-4 3 3 5-6 1.6 1.2-6.6 8-3-3-2.6 2.6L6 15Z" fill="currentColor"/>
  </symbol>
  <symbol id="icon-plus" viewBox="0 0 24 24">
    <path d="M11 5h2v6h6v2h-6v6h-2v-6H5v-2h6V5Z" fill="currentColor"/>
  </symbol>
  <symbol id="icon-pencil" viewBox="0 0 24 24">
    <path d="M4 17.25V20h2.75L17.8 8.95l-2.75-2.75L4 17.25Z" fill="currentColor"/>
    <path d="M19.7 7.05a1 1 0 0 0 0-1.4l-1.35-1.35a1 1 0 0 0-1.4 0l-1.1 1.1 2.75 2.75 1.1-1.1Z" fill="currentColor" opacity="0.7"/>
  </symbol>
  <symbol id="icon-archive" viewBox="0 0 24 24">
    <path d="M4 4h16v4H4V4Z" fill="currentColor" opacity="0.7"/>
    <path d="M5 9h14v11H5V9Z" fill="currentColor"/>
    <path d="M9 12h6v2H9v-2Z" fill="hsl(var(--background))" opacity="0.9"/>
  </symbol>
  <symbol id="icon-trash" viewBox="0 0 24 24">
    <path d="M4 7h16" fill="none" stroke="currentColor" stroke-width="2" stroke-linecap="round"/>
    <path d="M9 7V5h6v2" fill="none" stroke="currentColor" stroke-width="2" stroke-linecap="round"/>
    <path d="M6 7l1 12a2 2 0 0 0 2 2h6a2 2 0 0 0 2-2l1-12" fill="none" stroke="currentColor" stroke-width="2" stroke-linecap="round"/>
    <path d="M10 11v6M14 11v6" fill="none" stroke="currentColor" stroke-width="2" stroke-linecap="round"/>
  </symbol>
  <symbol id="icon-rotate-ccw" viewBox="0 0 24 24">
    <path d="M12 6a6 6 0 1 1-5.3 3.2l1.8 1a4 4 0 1 0 .8-3.4H7V3L3 7l4 4V8.8A8 8 0 1 0 12 4v2Z" fill="currentColor"/>
  </symbol>
  <symbol id="icon-arrow-up-right" viewBox="0 0 24 24">
    <path d="M7 17 17 7H10V5h10v10h-2V8.4L8.4 18.4 7 17Z" fill="currentColor"/>
  </symbol>
  <symbol id="icon-arrow-down-right" viewBox="0 0 24 24">
    <path d="M7 7 17 17v-7h2v10H9v-2h7.6L6.6 8.4 7 7Z" fill="currentColor"/>
  </symbol>
  <symbol id="icon-arrow-down-left" viewBox="0 0 24 24">
    <path d="M17 7 7 17h7v2H4V9h2v7.6L15.6 7.6 17 7Z" fill="currentColor"/>
  </symbol>
  <symbol id="icon-arrow-right" viewBox="0 0 24 24">
    <path d="M13 5l7 7-7 7-1.4-1.4L16.2 13H4v-2h12.2l-4.6-4.6L13 5Z" fill="currentColor"/>
  </symbol>
  <symbol id="icon-settings-2" viewBox="0 0 24 24">
    <path d="M19.4 13a7.9 7.9 0 0 0 0-2l2-1.2-2-3.4-2.3.8a7.3 7.3 0 0 0-1.7-1l-.3-2.4h-4l-.3 2.4c-.6.2-1.2.6-1.7 1l-2.3-.8-2 3.4 2 1.2a7.9 7.9 0 0 0 0 2l-2 1.2 2 3.4 2.3-.8c.5.4 1.1.8 1.7 1l.3 2.4h4l.3-2.4c.6-.2 1.2-.6 1.7-1l2.3.8 2-3.4-2-1.2Z" fill="currentColor" opacity="0.85"/>
    <path d="M12 15.5A3.5 3.5 0 1 1 12 8.5a3.5 3.5 0 0 1 0 7Z" fill="hsl(var(--background))"/>
  </symbol>
  <symbol id="icon-log-out" viewBox="0 0 24 24">
    <path d="M10 7V5a2 2 0 0 1 2-2h8v18h-8a2 2 0 0 1-2-2v-2h2v2h6V5h-6v2h-2Z" fill="currentColor" opacity="0.85"/>
    <path d="M4 12l4-4 1.4 1.4L7.8 11H15v2H7.8l1.6 1.6L8 16l-4-4Z" fill="currentColor"/>
  </symbol>
  <symbol id="icon-x" viewBox="0 0 24 24">
    <path d="M6.3 5 5 6.3 10.7 12 5 17.7 6.3 19 12 13.3 17.7 19 19 17.7 13.3 12 19 6.3 17.7 5 12 10.7 6.3 5Z" fill="currentColor"/>
  </symbol>
  <symbol id="icon-lock" viewBox="0 0 24 24">
    <path d="M7 10V8a5 5 0 0 1 10 0v2h1a2 2 0 0 1 2 2v8a2 2 0 0 1-2 2H6a2 2 0 0 1-2-2v-8a2 2 0 0 1 2-2h1Zm2 0h6V8a3 3 0 0 0-6 0v2Z" fill="currentColor"/>
    <path d="M12 14a2 2 0 0 0-1 3.7V19h2v-1.3A2 2 0 0 0 12 14Z" fill="hsl(var(--background))"/>
  </symbol>
  <symbol id="icon-banknote" viewBox="0 0 24 24">
    <path d="M3 7h18v10H3V7Z" fill="currentColor"/>
    <path d="M6 9a3 3 0 0 1-2 2v2a3 3 0 0 1 2 2h12a3 3 0 0 1 2-2v-2a3 3 0 0 1-2-2H6Z" fill="hsl(var(--background))" opacity="0.9"/>
    <path d="M12 10a2 2 0 1 1 0 4 2 2 0 0 1 0-4Z" fill="currentColor"/>
  </symbol>
  <symbol id="icon-credit-card" viewBox="0 0 24 24">
    <path d="M3 6h18a2 2 0 0 1 2 2v2H1V8a2 2 0 0 1 2-2Z" fill="currentColor" opacity="0.75"/>
    <path d="M1 11h22v5a2 2 0 0 1-2 2H3a2 2 0 0 1-2-2v-5Z" fill="currentColor"/>
    <path d="M4 15h6v2H4v-2Z" fill="hsl(var(--background))" opacity="0.9"/>
  </symbol>
  <symbol id="icon-candlestick-chart" viewBox="0 0 24 24">
    <path d="M6 5h2v3h2v2H8v7h2v2H8v2H6v-2H4v-2h2V10H4V8h2V5Zm10 2h2v4h2v2h-2v5h2v2h-2v2h-2v-2h-2v-2h2v-5h-2v-2h2V7Z" fill="currentColor"/>
  </symbol>
  <symbol id="icon-activity" viewBox="0 0 24 24">
    <path d="M13 2 3 14h7l-1 8 10-12h-7l1-8Z" fill="currentColor"/>
  </symbol>
</svg>
