<svg xmlns="http://www.w3.org/2000/svg" viewBox="0 0 24 24" fill="none" stroke="#4f46e5" stroke-width="2" stroke-linecap="round" stroke-linejoin="round">
  <path d="M4 7.5A3.5 3.5 0 0 1 7.5 4H20a1 1 0 0 1 1 1v3H7.5A2.5 2.5 0 0 0 5 10.5V8.25C5 7.56 4.44 7 3.75 7H4.1c-.06.16-.1.33-.1.5Z" opacity="0.5"/>
  <path d="M3 8.5A2.5 2.5 0 0 1 5.5 6H20a1 1 0 0 1 1 1v10.5A2.5 2.5 0 0 1 18.5 20h-13A2.5 2.5 0 0 1 3 17.5v-9Z"/>
  <path d="M16 13.25a1.25 1.25 0 1 0 0 2.5h3v-2.5h-3Z" fill="#4f46e5" stroke="none"/>
</svg>